HIERARCHY
ROOT hip
{
  OFFSET -0.0897746 90.7695 -0.105382
  CHANNELS 6 Xposition Yposition Zposition Zrotation Xrotation Yrotation
  JOINT abdomen
  {
    OFFSET 0 7.2397 0
    CHANNELS 6 Xposition Yposition Zposition Zrotation Xrotation Yrotation
    JOINT chest
    {
      OFFSET 0 16.546 0
      CHANNELS 6 Xposition Yposition Zposition Zrotation Xrotation Yrotation
      JOINT neck
      {
        OFFSET 0 34.2149 0
        CHANNELS 6 Xposition Yposition Zposition Zrotation Xrotation Yrotation
        JOINT head
        {
          OFFSET 0 6.2923 0
          CHANNELS 6 Xposition Yposition Zposition Zrotation Xrotation Yrotation
          End Site
          {
            OFFSET 0 21.2161 0
          }
        }
      }
      JOINT lCollar
      {
        OFFSET 4.0639 26.6115 -1.1234
        CHANNELS 6 Xposition Yposition Zposition Zrotation Xrotation Yrotation
        JOINT lShldr
        {
          OFFSET 14.1772 0 0
          CHANNELS 6 Xposition Yposition Zposition Zrotation Xrotation Yrotation
          JOINT lForeArm
          {
            OFFSET 26.1234 0 0
            CHANNELS 6 Xposition Yposition Zposition Zrotation Xrotation Yrotation
            JOINT lHand
            {
              OFFSET 27.7188 0 0
              CHANNELS 6 Xposition Yposition Zposition Zrotation Xrotation Yrotation
              JOINT lThumb1
              {
                OFFSET 2.2979 -0.4685 1.8313
                CHANNELS 6 Xposition Yposition Zposition Zrotation Xrotation Yrotation
                JOINT lThumb2
                {
                  OFFSET 5.2953 0 0
                  CHANNELS 6 Xposition Yposition Zposition Zrotation Xrotation Yrotation
                  JOINT lThumb3
                  {
                    OFFSET 3.0181 0 0
                    CHANNELS 6 Xposition Yposition Zposition Zrotation Xrotation Yrotation
                    End Site
                    {
                      OFFSET 2.6294 0 0
                    }
                  }
                }
              }
              JOINT lIndex1
              {
                OFFSET 9.3793 0.2991 2.5924
                CHANNELS 6 Xposition Yposition Zposition Zrotation Xrotation Yrotation
                JOINT lIndex2
                {
                  OFFSET 4.3461 0 0
                  CHANNELS 6 Xposition Yposition Zposition Zrotation Xrotation Yrotation
                  JOINT lIndex3
                  {
                    OFFSET 2.1666 0 0
                    CHANNELS 6 Xposition Yposition Zposition Zrotation Xrotation Yrotation
                    End Site
                    {
                      OFFSET 2.2048 0 0
                    }
                  }
                }
              }
              JOINT lMid1
              {
                OFFSET 9.4769 0.8376 0.2947
                CHANNELS 6 Xposition Yposition Zposition Zrotation Xrotation Yrotation
                JOINT lMid2
                {
                  OFFSET 4.772 0 0
                  CHANNELS 6 Xposition Yposition Zposition Zrotation Xrotation Yrotation
                  JOINT lMid3
                  {
                    OFFSET 2.8722 0 0
                    CHANNELS 6 Xposition Yposition Zposition Zrotation Xrotation Yrotation
                    End Site
                    {
                      OFFSET 2.0959 0 0
                    }
                  }
                }
              }
              JOINT lRing1
              {
                OFFSET 8.6586 1.0176 -1.7016
                CHANNELS 6 Xposition Yposition Zposition Zrotation Xrotation Yrotation
                JOINT lRing2
                {
                  OFFSET 4.5461 0 0
                  CHANNELS 6 Xposition Yposition Zposition Zrotation Xrotation Yrotation
                  JOINT lRing3
                  {
                    OFFSET 2.506 0 0
                    CHANNELS 6 Xposition Yposition Zposition Zrotation Xrotation Yrotation
                    End Site
                    {
                      OFFSET 2.2023 0 0
                    }
                  }
                }
              }
              JOINT lPinky1
              {
                OFFSET 7.6901 0.6618 -3.9096
                CHANNELS 6 Xposition Yposition Zposition Zrotation Xrotation Yrotation
                JOINT lPinky2
                {
                  OFFSET 3.2119 0 0
                  CHANNELS 6 Xposition Yposition Zposition Zrotation Xrotation Yrotation
                  JOINT lPinky3
                  {
                    OFFSET 1.924 0 0
                    CHANNELS 6 Xposition Yposition Zposition Zrotation Xrotation Yrotation
                    End Site
                    {
                      OFFSET 1.7829 0 0
                    }
                  }
                }
              }
            }
          }
        }
      }
      JOINT rCollar
      {
        OFFSET -4.0677 26.6109 -1.1234
        CHANNELS 6 Xposition Yposition Zposition Zrotation Xrotation Yrotation
        JOINT rShldr
        {
          OFFSET -14.1772 0 0
          CHANNELS 6 Xposition Yposition Zposition Zrotation Xrotation Yrotation
          JOINT rForeArm
          {
            OFFSET -26.1234 0 0
            CHANNELS 6 Xposition Yposition Zposition Zrotation Xrotation Yrotation
            JOINT rHand
            {
              OFFSET -27.7188 0 0
              CHANNELS 6 Xposition Yposition Zposition Zrotation Xrotation Yrotation
              JOINT rThumb1
              {
                OFFSET -2.2979 -0.4684 1.8313
                CHANNELS 6 Xposition Yposition Zposition Zrotation Xrotation Yrotation
                JOINT rThumb2
                {
                  OFFSET -5.2953 0 0
                  CHANNELS 6 Xposition Yposition Zposition Zrotation Xrotation Yrotation
                  JOINT rThumb3
                  {
                    OFFSET -3.0181 0 0
                    CHANNELS 6 Xposition Yposition Zposition Zrotation Xrotation Yrotation
                    End Site
                    {
                      OFFSET -2.6294 0 0
                    }
                  }
                }
              }
              JOINT rIndex1
              {
                OFFSET -9.3793 0.2991 2.5924
                CHANNELS 6 Xposition Yposition Zposition Zrotation Xrotation Yrotation
                JOINT rIndex2
                {
                  OFFSET -4.3461 0 0
                  CHANNELS 6 Xposition Yposition Zposition Zrotation Xrotation Yrotation
                  JOINT rIndex3
                  {
                    OFFSET -2.1666 0 0
                    CHANNELS 6 Xposition Yposition Zposition Zrotation Xrotation Yrotation
                    End Site
                    {
                      OFFSET -2.2048 0 0
                    }
                  }
                }
              }
              JOINT rMid1
              {
                OFFSET -9.4769 0.8376 0.2947
                CHANNELS 6 Xposition Yposition Zposition Zrotation Xrotation Yrotation
                JOINT rMid2
                {
                  OFFSET -4.772 0 0
                  CHANNELS 6 Xposition Yposition Zposition Zrotation Xrotation Yrotation
                  JOINT rMid3
                  {
                    OFFSET -2.8722 0 0
                    CHANNELS 6 Xposition Yposition Zposition Zrotation Xrotation Yrotation
                    End Site
                    {
                      OFFSET -2.0959 0 0
                    }
                  }
                }
              }
              JOINT rRing1
              {
                OFFSET -8.6586 1.0176 -1.7016
                CHANNELS 6 Xposition Yposition Zposition Zrotation Xrotation Yrotation
                JOINT rRing2
                {
                  OFFSET -4.5461 0 0
                  CHANNELS 6 Xposition Yposition Zposition Zrotation Xrotation Yrotation
                  JOINT rRing3
                  {
                    OFFSET -2.506 0 0
                    CHANNELS 6 Xposition Yposition Zposition Zrotation Xrotation Yrotation
                    End Site
                    {
                      OFFSET -2.2023 0 0
                    }
                  }
                }
              }
              JOINT rPinky1
              {
                OFFSET -7.6901 0.6618 -3.9096
                CHANNELS 6 Xposition Yposition Zposition Zrotation Xrotation Yrotation
                JOINT rPinky2
                {
                  OFFSET -3.2119 0 0
                  CHANNELS 6 Xposition Yposition Zposition Zrotation Xrotation Yrotation
                  JOINT rPinky3
                  {
                    OFFSET -1.924 0 0
                    CHANNELS 6 Xposition Yposition Zposition Zrotation Xrotation Yrotation
                    End Site
                    {
                      OFFSET -1.7829 0 0
                    }
                  }
                }
              }
            }
          }
        }
      }
    }
  }
  JOINT lThigh
  {
    OFFSET 8.7379 -0.0029 0.0005
    CHANNELS 6 Xposition Yposition Zposition Zrotation Xrotation Yrotation
    JOINT lShin
    {
      OFFSET 0 -46.6676 0
      CHANNELS 6 Xposition Yposition Zposition Zrotation Xrotation Yrotation
      JOINT lFoot
      {
        OFFSET 0 -40.1476 0
        CHANNELS 6 Xposition Yposition Zposition Zrotation Xrotation Yrotation
        JOINT lToes
        {
          OFFSET 0 -8.8846 14.2294
          CHANNELS 6 Xposition Yposition Zposition Zrotation Xrotation Yrotation
          End Site
          {
            OFFSET 0 0 6.296
          }
        }
      }
    }
  }
  JOINT rThigh
  {
    OFFSET -8.7379 0.0029 -0.0005
    CHANNELS 6 Xposition Yposition Zposition Zrotation Xrotation Yrotation
    JOINT rShin
    {
      OFFSET 0 -46.6676 0
      CHANNELS 6 Xposition Yposition Zposition Zrotation Xrotation Yrotation
      JOINT rFoot
      {
        OFFSET 0 -40.1476 0
        CHANNELS 6 Xposition Yposition Zposition Zrotation Xrotation Yrotation
        JOINT rToes
        {
          OFFSET 0 -8.8846 14.2294
          CHANNELS 6 Xposition Yposition Zposition Zrotation Xrotation Yrotation
          End Site
          {
            OFFSET 0 0 6.296
          }
        }
      }
    }
  }
}
MOTION
Frames:	4
Frame Time:	0.0333333
-0.0897746 90.7695 -0.105382 -3.51452 -0.420878 -34.0604 0 7.2397 0 1.20465 -0.0432874 2.54267 -4.44089e-16 16.546 -4.44089e-16 1.79901 1.81329 4.85684 0 34.2149 -5.55112e-17 -3.45253 50.3095 9.12158 0 6.2923 0 -5.50599 -23.3656 3.35449 4.0639 26.6115 -1.1234 -1.18014 -4.84291 -16.8659 14.1772 2.84217e-14 0 -42.3069 -11.331 -40.319 26.1234 0 -1.42109e-14 4.84332 3.85908 -70.8971 27.7188 0 -3.55271e-15 70.5474 -19.1051 61.1211 2.2979 -0.4685 1.8313 69.9432 84.1285 -87.1365 5.2953 4.26326e-14 1.42109e-14 -11.2965 -2.37211 -5.84065 3.0181 -2.84217e-14 7.10543e-15 12.4883 -0.000109421 -5.86965e-06 9.3793 0.2991 2.5924 -54.8783 -4.07613 29.0092 4.3461 3.55271e-15 2.84217e-14 -36.3856 -1.04825 4.14928 2.1666 -7.10543e-15 -2.84217e-14 -2.1684 -1.36217e-05 -1.63111e-06 9.4769 0.8376 0.2947 -70.3751 -7.83647 24.7014 4.772 -3.55271e-15 0 -26.6493 -0.348289 1.80381 2.8722 0 -5.68434e-14 3.9574 0.0710973 0.3994 8.6586 1.0176 -1.7016 -72.3081 -2.78939 21.9285 4.5461 0 0 -54.7865 1.2218 -2.34117 2.506 -7.10543e-15 -5.68434e-14 6.7605 -9.46994e-06 -9.94322e-05 7.6901 0.6618 -3.9096 -77.8976 -11.9162 17.9604 3.2119 0 0 -54.7865 -2.82848 5.45755 1.924 -3.55271e-15 2.84217e-14 4.4131 -5.95467e-06 -3.69154e-06 -4.0677 26.6109 -1.1234 -7.37993 -7.50434 23.7921 -14.1772 2.84217e-14 -8.88178e-16 42.4168 6.57407 79.8196 -26.1234 0 1.42109e-14 5.85697 -8.36679 32.6359 -27.7188 0 -1.42109e-14 -15.2626 -39.0831 -14.917 -2.2979 -0.4684 1.8313 -92.2527 53.1194 129.09 -5.2953 -1.42109e-14 1.42109e-14 26.2313 12.386 -5.72413 -3.0181 0 -1.42109e-14 -12.4883 -9.51409e-05 0.000105278 -9.3793 0.2991 2.5924 -10.818 -6.27557 -6.41593 -4.3461 8.88178e-16 0 19.0732 -0.324334 -4.36821 -2.1666 -3.55271e-15 0 2.1682 1.53065e-06 6.59416e-06 -9.4769 0.8376 0.2947 50.2578 -7.02253 -9.44883 -4.772 0 -2.84217e-14 81.5232 -4.32509 -5.10947 -2.8722 -7.10543e-15 2.84217e-14 -3.95751 0.0709846 -0.399396 -8.6586 1.0176 -1.7016 49.3049 2.3692 -6.59219 -4.5461 0 2.84217e-14 78.7391 3.33967 4.24025 -2.506 0 0 -6.7605 -1.01325e-05 4.95487e-06 -7.6901 0.6618 -3.9096 52.9035 -8.31878 1.34813 -3.2119 7.10543e-15 2.84217e-14 60.8902 -8.44058 -6.61889 -1.924 -3.55271e-15 0 -4.413 -4.01223e-06 1.12213e-06 8.7379 -0.0029 0.0005 18.9217 -21.0442 14.3201 0 -46.6676 7.10543e-15 3.2746 33.7701 -1.04711 0 -40.1476 3.55271e-15 -12.4089 -6.82377 17.6742 0 -8.8846 14.2294 0.0001 0 -0 -8.7379 0.0029 -0.0005 -16.2074 -5.55459 -23.9227 0 -46.6676 0 -3.16017 33.1145 1.08727 7.10543e-15 -40.1476 6.21725e-15 16.4632 -17.2339 -2.20619 0 -8.8846 14.2294 -1.98785e-16 -4.96962e-17 6.36111e-15 
-0.0864797 90.777 -0.110125 -3.50214 -0.418544 -34.0522 -8.88178e-16 7.2397 -4.44089e-16 1.20806 -0.0298044 2.54556 4.44089e-16 16.546 0 1.80795 1.84048 4.86155 0 34.2149 5.55112e-17 -3.51618 50.2643 8.96233 0 6.2923 0 -5.40717 -23.4561 2.8613 4.0639 26.6115 -1.1234 -1.14007 -4.85035 -16.8313 14.1772 2.84217e-14 -1.77636e-15 -42.312 -11.3792 -40.3237 26.1234 0 0 4.84068 3.84876 -71.0093 27.7188 -1.42109e-14 -1.42109e-14 70.5264 -19.1372 61.0817 2.2979 -0.4685 1.8313 70.3166 83.909 -87.5953 5.2953 -1.42109e-14 -7.10543e-15 -11.5429 -2.42824 -5.78416 3.0181 -2.84217e-14 3.55271e-15 12.4883 -0.000109421 -5.86965e-06 9.3793 0.2991 2.5924 -54.9375 -4.0031 28.9445 4.3461 -3.55271e-15 5.68434e-14 -36.3853 -1.04823 4.14925 2.1666 0 0 -2.1684 -1.36217e-05 -1.63111e-06 9.4769 0.8376 0.2947 -70.4714 -7.83814 24.7186 4.772 3.55271e-15 -2.84217e-14 -26.6361 -0.347876 1.80298 2.8722 7.10543e-15 0 3.9574 0.0710973 0.3994 8.6586 1.0176 -1.7016 -72.2379 -2.85652 22.0689 4.5461 -7.10543e-15 0 -54.7734 1.22127 -2.34079 2.506 -7.10543e-15 2.84217e-14 6.7605 -9.46994e-06 -9.94322e-05 7.6901 0.6618 -3.9096 -77.545 -11.9104 17.9326 3.2119 -3.55271e-15 0 -54.7702 -2.82694 5.45643 1.924 7.10543e-15 2.84217e-14 4.4131 -5.95467e-06 -3.69154e-06 -4.0677 26.6109 -1.1234 -7.38747 -7.50658 23.7927 -14.1772 -2.84217e-14 1.77636e-15 42.4475 6.53178 79.6358 -26.1234 -2.84217e-14 7.10543e-15 5.88755 -8.23977 33.1269 -27.7188 0 0 -15.4276 -38.8088 -15.0669 -2.2979 -0.4684 1.8313 -92.0142 53.4227 128.617 -5.2953 1.42109e-14 0 26.442 12.2448 -5.73668 -3.0181 1.42109e-14 0 -12.4883 -9.51409e-05 0.000105278 -9.3793 0.2991 2.5924 -10.6437 -6.30012 -6.39876 -4.3461 -8.88178e-16 2.84217e-14 19.1627 -0.327914 -4.36485 -2.1666 3.55271e-15 -2.84217e-14 2.1682 1.53065e-06 6.59416e-06 -9.4769 0.8376 0.2947 50.396 -7.02532 -9.43641 -4.772 0 0 81.5065 -4.32361 -5.10924 -2.8722 0 0 -3.95751 0.0709846 -0.399396 -8.6586 1.0176 -1.7016 49.3068 2.36921 -6.60601 -4.5461 0 0 78.7056 3.3372 4.23976 -2.506 0 0 -6.7605 -1.01325e-05 4.95487e-06 -7.6901 0.6618 -3.9096 52.9175 -8.28674 1.4273 -3.2119 7.10543e-15 2.84217e-14 61.4151 -8.39655 -6.59445 -1.924 0 0 -4.413 -4.01223e-06 1.12213e-06 8.7379 -0.0029 0.0005 18.9059 -21.0395 14.3139 -3.55271e-15 -46.6676 7.10543e-15 3.26826 33.7258 -1.043 7.10543e-15 -40.1476 7.10543e-15 -12.403 -6.79634 17.6847 0 -8.8846 14.2294 0.0001 -3.10601e-18 -9.93923e-17 -8.7379 0.0029 -0.0005 -16.2067 -5.55675 -23.916 -3.55271e-15 -46.6676 -3.55271e-15 -3.15735 33.0943 1.08616 0 -40.1476 -4.44089e-16 16.4426 -17.2378 -2.22628 0 -8.8846 14.2294 -1.98785e-16 -4.96962e-17 9.54166e-15 
-0.0759954 90.7877 -0.119235 -3.49005 -0.421781 -34.0499 0 7.2397 -8.88178e-16 1.21064 -0.00673605 2.55112 4.44089e-16 16.546 -8.88178e-16 1.81619 1.88688 4.87148 0 34.2149 1.66533e-16 -3.65282 50.2131 8.77303 -1.77636e-15 6.2923 -1.42109e-14 -5.31576 -23.6056 2.107 4.0639 26.6115 -1.1234 -1.07111 -4.86392 -16.7979 14.1772 0 0 -42.3084 -11.4523 -40.3508 26.1234 -2.84217e-14 -1.42109e-14 4.83102 3.84003 -71.073 27.7188 0 0 70.5336 -19.1934 61.0848 2.2979 -0.4685 1.8313 70.6468 83.6812 -87.9909 5.2953 1.42109e-14 7.10543e-15 -11.8326 -2.49358 -5.72727 3.0181 -2.84217e-14 -1.06581e-14 12.4883 -0.000109421 -5.86965e-06 9.3793 0.2991 2.5924 -54.9766 -3.92983 28.8806 4.3461 3.55271e-15 0 -36.3847 -1.04819 4.14919 2.1666 7.10543e-15 0 -2.1684 -1.36217e-05 -1.63111e-06 9.4769 0.8376 0.2947 -70.5253 -7.84568 24.741 4.772 3.55271e-15 -2.84217e-14 -26.6231 -0.347447 1.80217 2.8722 -7.10543e-15 0 3.9574 0.0710973 0.3994 8.6586 1.0176 -1.7016 -72.2068 -2.91269 22.2119 4.5461 7.10543e-15 -2.84217e-14 -54.7463 1.22015 -2.34002 2.506 -7.10543e-15 2.84217e-14 6.7605 -9.46994e-06 -9.94322e-05 7.6901 0.6618 -3.9096 -77.1891 -11.8892 17.8918 3.2119 -7.10543e-15 0 -54.7449 -2.8245 5.45471 1.924 -3.55271e-15 0 4.4131 -5.95467e-06 -3.69154e-06 -4.0677 26.6109 -1.1234 -7.4183 -7.51883 23.8231 -14.1772 -2.84217e-14 -8.88178e-16 42.4629 6.44503 79.5152 -26.1234 2.84217e-14 7.10543e-15 5.89528 -8.12426 33.4924 -27.7188 -1.42109e-14 0 -15.569 -38.5926 -15.2088 -2.2979 -0.4684 1.8313 -91.8441 53.6961 128.118 -5.2953 0 -1.42109e-14 26.6812 12.0992 -5.75357 -3.0181 0 -1.42109e-14 -12.4883 -9.51409e-05 0.000105278 -9.3793 0.2991 2.5924 -10.52 -6.32491 -6.37504 -4.3461 1.77636e-15 -2.84217e-14 19.2486 -0.331336 -4.36071 -2.1666 0 0 2.1682 1.53065e-06 6.59416e-06 -9.4769 0.8376 0.2947 50.3534 -7.0238 -9.47204 -4.772 7.10543e-15 2.84217e-14 81.5051 -4.32348 -5.10924 -2.8722 0 0 -3.95751 0.0709846 -0.399396 -8.6586 1.0176 -1.7016 49.2754 2.36986 -6.61816 -4.5461 0 0 78.7383 3.33963 4.24025 -2.506 0 2.84217e-14 -6.7605 -1.01325e-05 4.95487e-06 -7.6901 0.6618 -3.9096 52.9159 -8.25719 1.48394 -3.2119 0 0 61.667 -8.33661 -6.56118 -1.924 -3.55271e-15 2.84217e-14 -4.413 -4.01223e-06 1.12213e-06 8.7379 -0.0029 0.0005 18.8822 -21.0257 14.3053 3.55271e-15 -46.6676 -7.10543e-15 3.25968 33.6654 -1.03745 0 -40.1476 0 -12.3927 -6.75829 17.7027 3.55271e-15 -8.8846 14.2294 0.0001 -3.10601e-18 -4.96962e-17 -8.7379 0.0029 -0.0005 -16.2096 -5.56092 -23.9034 -3.55271e-15 -46.6676 -3.55271e-15 -3.15413 33.0708 1.08464 0 -40.1476 8.88178e-16 16.4202 -17.2294 -2.24441 3.55271e-15 -8.8846 14.2294 1.98785e-16 0 6.36111e-15 
-0.0569896 90.7994 -0.134736 -3.47566 -0.429888 -34.0489 0 7.2397 4.44089e-16 1.21262 0.0271956 2.55968 4.44089e-16 16.546 4.44089e-16 1.82462 1.95506 4.88702 0 34.2149 0 -3.8594 50.0975 8.56581 0 6.2923 -1.42109e-14 -5.2314 -23.7625 1.17765 4.0639 26.6115 -1.1234 -0.98783 -4.88112 -16.7792 14.1772 2.84217e-14 0 -42.2699 -11.5514 -40.3742 26.1234 -1.42109e-14 -1.42109e-14 4.81703 3.83036 -71.1262 27.7188 0 -7.10543e-15 70.5627 -19.2631 61.1294 2.2979 -0.4685 1.8313 70.9517 83.4471 -88.3658 5.2953 1.42109e-14 7.10543e-15 -12.1454 -2.56388 -5.6697 3.0181 -2.84217e-14 -3.55271e-15 12.4883 -0.000109421 -5.86965e-06 9.3793 0.2991 2.5924 -55.0018 -3.856 28.8171 4.3461 0 -2.84217e-14 -36.3954 -1.04894 4.15022 2.1666 7.10543e-15 0 -2.1684 -1.36217e-05 -1.63111e-06 9.4769 0.8376 0.2947 -70.5889 -7.8522 24.7629 4.772 0 0 -26.6421 -0.348027 1.80336 2.8722 0 0 3.9574 0.0710973 0.3994 8.6586 1.0176 -1.7016 -72.1463 -2.97429 22.3589 4.5461 7.10543e-15 2.84217e-14 -54.7106 1.21871 -2.33898 2.506 0 0 6.7605 -9.46994e-06 -9.94322e-05 7.6901 0.6618 -3.9096 -76.8134 -11.929 17.8995 3.2119 3.55271e-15 0 -54.7196 -2.82206 5.45301 1.924 0 0 4.4131 -5.95467e-06 -3.69154e-06 -4.0677 26.6109 -1.1234 -7.47063 -7.53879 23.8669 -14.1772 0 8.88178e-16 42.4506 6.32219 79.4338 -26.1234 0 -7.10543e-15 5.88975 -8.01332 33.7934 -27.7188 0 -1.42109e-14 -15.6952 -38.4336 -15.3621 -2.2979 -0.4684 1.8313 -91.6188 53.982 127.607 -5.2953 2.84217e-14 0 26.9075 11.952 -5.76794 -3.0181 0 -1.42109e-14 -12.4883 -9.51409e-05 0.000105278 -9.3793 0.2991 2.5924 -10.4069 -6.34514 -6.36506 -4.3461 0 2.84217e-14 19.4476 -0.340003 -4.37147 -2.1666 0 0 2.1682 1.53065e-06 6.59416e-06 -9.4769 0.8376 0.2947 50.3899 -7.02426 -9.48176 -4.772 0 0 81.5202 -4.32484 -5.10943 -2.8722 -7.10543e-15 2.84217e-14 -3.95751 0.0709846 -0.399396 -8.6586 1.0176 -1.7016 49.203 2.37123 -6.60394 -4.5461 0 0 78.7459 3.34017 4.24035 -2.506 -7.10543e-15 0 -6.7605 -1.01325e-05 4.95487e-06 -7.6901 0.6618 -3.9096 52.9089 -8.22701 1.54216 -3.2119 0 2.84217e-14 62.0327 -8.28184 -6.53068 -1.924 0 0 -4.413 -4.01223e-06 1.12213e-06 8.7379 -0.0029 0.0005 18.8515 -21.0106 14.3014 0 -46.6676 0 3.24984 33.5963 -1.03082 0 -40.1476 0 -12.3762 -6.71024 17.7137 0 -8.8846 14.2294 0.0001 3.10601e-18 -0 -8.7379 0.0029 -0.0005 -16.2228 -5.57129 -23.9015 -3.55271e-15 -46.6676 -3.55271e-15 -3.15181 33.0537 1.08335 0 -40.1476 -4.44089e-16 16.3952 -17.2179 -2.25053 -3.55271e-15 -8.8846 14.2294 1.98785e-16 9.93923e-17 -3.18055e-15 
